<svg xmlns="http://www.w3.org/2000/svg" width="16" height="16" fill="none" viewBox="0 0 16 16">
  <path fill="url(#a)" d="M7.5 5.5a5 5 0 0 0-5 5V14a.5.5 0 0 0 .5.5h9a.5.5 0 0 0 .5-.5v-3.5a5 5 0 0 0-5-5Z"/>
  <path fill="#000" d="M12 10.5a4.5 4.5 0 0 0-9 0V14h9v-3.5Zm1 3.5a1 1 0 0 1-1 1H3a1 1 0 0 1-1-1v-3.5a5.5 5.5 0 1 1 11 0V14Z"/>
  <path fill="url(#b)" d="M14.43 9.503a7.002 7.002 0 0 0-13.86 0c-.077.547.378.997.93.997h1a5 5 0 0 1 10 0h1c.552 0 1.008-.45.93-.997Z"/>
  <path fill="#000" d="M7.5 3a7.502 7.502 0 0 1 7.425 6.433c.127.895-.62 1.567-1.425 1.567H12v-.5a4.5 4.5 0 0 0-9 0v.5H1.5C.694 11-.052 10.328.075 9.433A7.502 7.502 0 0 1 7.5 3Zm0 1a6.502 6.502 0 0 0-6.435 5.573c-.028.198.136.427.435.427h.523a5.5 5.5 0 0 1 10.954 0h.523c.299 0 .463-.23.434-.427A6.502 6.502 0 0 0 7.5 4Z"/>
  <path fill="#6D4826" d="M6.5 10.5v4h2v-4h-2Z"/>
  <path fill="#000" d="M9 10v5H6v-5h3Zm-2 4h1v-3H7v3Z"/>
  <path fill="#AFB2AF" d="M5.5 3.79a6.972 6.972 0 0 0-2 .965V2.5a1 1 0 0 1 2 0v1.29Z"/>
  <path fill="#000" d="M5 2.5a.5.5 0 0 0-1 0v1.365c.32-.169.654-.315 1-.437V2.5Zm1 1.663-.357.107a6.471 6.471 0 0 0-1.857.895L3 5.713V2.5a1.5 1.5 0 1 1 3 0v1.663Z"/>
  <path fill="#BD965A" d="M6.42 8.817c-.93.598-.025 1.683 1.08 1.683s2.01-1.085 1.08-1.683A1.99 1.99 0 0 0 7.5 8.5c-.398 0-.77.116-1.08.317Z"/>
  <path fill="#000" d="M7.5 8a2.5 2.5 0 0 1 2.5 2.5v.5H5v-.5A2.5 2.5 0 0 1 7.5 8Zm0 1a1.5 1.5 0 0 0-1.413 1h2.826A1.5 1.5 0 0 0 7.5 9Z"/>
  <defs>
    <linearGradient id="a" x1="7.5" x2="7.5" y1="5.5" y2="14.5" gradientUnits="userSpaceOnUse">
      <stop stop-color="#A77555"/>
      <stop offset="1" stop-color="#9C633C"/>
    </linearGradient>
    <linearGradient id="b" x1="7.5" x2="7.5" y1="3.5" y2="10.5" gradientUnits="userSpaceOnUse">
      <stop stop-color="#E7C773"/>
      <stop offset="1" stop-color="#B0934A"/>
    </linearGradient>
  </defs>
</svg>
