<svg xmlns="http://www.w3.org/2000/svg" width="16" height="16" fill="none" viewBox="0 0 16 16">
  <path fill="url(#a)" d="M2 14.5V10c0-2.761 2.462-5 5.5-5S13 7.239 13 10v4.5a.5.5 0 0 1-.5.5h-10a.5.5 0 0 1-.5-.5Z"/>
  <path fill="#AFB2AF" d="M5 4.035 3 5V2a1 1 0 0 1 2 0v2.035Z"/>
  <path fill="url(#b)" d="M1 10h1c0-2.761 2.462-5 5.5-5S13 7.239 13 10h1c.552 0 1.008-.45.925-.997C14.406 5.61 11.28 3 7.5 3S.594 5.61.075 9.003C-.008 9.55.448 10 1 10Z"/>
  <path fill="url(#c)" d="M5 11.5h5a2.5 2.5 0 0 0-5 0Z"/>
  <path fill="#6D4826" d="M6 11.5V15h3v-3.5a1.5 1.5 0 0 0-3 0Z"/>
  <defs>
    <linearGradient id="a" x1="7.5" x2="7.5" y1="5" y2="15" gradientUnits="userSpaceOnUse">
      <stop stop-color="#A77555"/>
      <stop offset="1" stop-color="#9C633C"/>
    </linearGradient>
    <linearGradient id="b" x1="7.5" x2="7.5" y1="3" y2="10" gradientUnits="userSpaceOnUse">
      <stop stop-color="#E7C773"/>
      <stop offset="1" stop-color="#B0934A"/>
    </linearGradient>
    <linearGradient id="c" x1="7.5" x2="7.5" y1="9" y2="12" gradientUnits="userSpaceOnUse">
      <stop stop-color="#E7C773"/>
      <stop offset="1" stop-color="#B0934A"/>
    </linearGradient>
  </defs>
</svg>
